<?xml version="1.0" encoding="UTF-8"?>
<svg version="1.1" xmlns="http://www.w3.org/2000/svg" width="283" height="280">
<path d="M0 0 C93.39 0 186.78 0 283 0 C283 92.4 283 184.8 283 280 C189.61 280 96.22 280 0 280 C0 187.6 0 95.2 0 0 Z " fill="#fff" transform="translate(0,0)"/>
<path d="M0 0 C1.39034248 -0.00807831 1.39034248 -0.00807831 2.80877268 -0.01631981 C5.89231653 -0.03054493 8.97542777 -0.02350909 12.05899048 -0.01637268 C14.27889855 -0.02207911 16.49880369 -0.02904442 18.71870422 -0.03717041 C24.73322329 -0.05508724 30.74759635 -0.05393609 36.76213408 -0.04822803 C41.78937852 -0.04513388 46.81659501 -0.05123119 51.84383547 -0.05726677 C64.38475418 -0.07210768 76.92560254 -0.06850263 89.46651621 -0.05640347 C100.33850909 -0.0464743 111.2103317 -0.05940924 122.08229832 -0.08333766 C133.26637949 -0.10776608 144.45039905 -0.1169282 155.63451064 -0.11068493 C161.90523193 -0.10731861 168.17581259 -0.10970899 174.44651413 -0.12693596 C180.34487515 -0.1424333 186.24291181 -0.13841826 192.14126015 -0.11963081 C194.30069862 -0.11595262 196.46016127 -0.11903082 198.61957741 -0.1295166 C211.83985379 -0.18878996 223.81422993 -0.20167718 234.58877563 8.55955505 C242.47259044 16.63313346 244.67864229 26.40778854 244.70986938 37.3134613 C244.71652618 38.14169907 244.72318298 38.96993683 244.7300415 39.82327271 C244.74010564 41.5653412 244.74486047 43.30744776 244.74453735 45.04954529 C244.74890357 47.68310071 244.78526909 50.31496776 244.82315063 52.94822693 C244.9028555 64.81736938 243.8994187 75.02067605 236.14736938 84.6025238 C231.36384881 89.41765355 224.82751218 93.9346934 217.93818951 94.63542652 C216.65542991 94.63398152 216.65542991 94.63398152 215.34675598 94.63250732 C214.35857376 94.63644501 213.37039154 94.64038269 212.3522644 94.6444397 C210.74300079 94.63589714 210.74300079 94.63589714 209.10122681 94.62718201 C207.39302513 94.63020325 207.39302513 94.63020325 205.65031433 94.63328552 C203.17910696 94.63682909 200.70789051 94.63606633 198.2366848 94.63150978 C194.32320582 94.62591672 190.41002323 94.6350757 186.49656677 94.64871216 C175.37031342 94.68639206 164.24414272 94.70465612 153.11782837 94.69309998 C146.31029453 94.6862038 139.50318564 94.70553149 132.69573402 94.73898888 C130.10385617 94.74693775 127.51193285 94.74567297 124.92006493 94.73496437 C121.29119054 94.72061753 117.66362305 94.73693147 114.03482056 94.75999451 C112.96805084 94.74822678 111.90128113 94.73645905 110.80218506 94.72433472 C104.13706776 94.80724164 99.3814439 95.78948854 94.37393188 100.38768005 C90.16432503 105.77828641 90.95224606 112.37194183 90.98574829 118.9072113 C90.98049133 120.16641388 90.97523438 121.42561646 90.96981812 122.72297668 C90.95618059 126.16515197 90.96142824 129.60705649 90.97095537 133.0492363 C90.97857054 136.65790771 90.97150121 140.26655652 90.96679688 143.87522888 C90.96134471 149.93443447 90.96851671 155.99353022 90.9828186 162.05271912 C90.99914416 169.04989709 90.99385526 176.04681279 90.97733939 183.04398441 C90.96370908 189.06030803 90.96181238 195.07655285 90.96965539 201.09288692 C90.97432345 204.68237543 90.97498076 208.2717408 90.96504593 211.86122131 C90.95474111 215.86368753 90.96903876 219.86570424 90.98574829 223.8681488 C90.9796756 225.05274689 90.97360291 226.23734497 90.96734619 227.45783997 C91.01788119 235.34510483 91.01788119 235.34510483 94.37393188 242.38768005 C99.09425838 246.64748689 101.90833503 247.6619765 108.11611938 247.62205505 C111.09417175 247.31291467 112.97857657 246.12975665 115.37393188 244.38768005 C116.03393188 244.38768005 116.69393188 244.38768005 117.37393188 244.38768005 C119.77268055 238.50239123 119.77268055 238.50239123 120.50523376 232.25985718 C120.50924194 231.42035522 120.51325012 230.58085327 120.51737976 229.71591187 C120.51685104 228.79798355 120.51632233 227.88005524 120.51577759 226.93431091 C120.51925201 225.96482513 120.52272644 224.99533936 120.52630615 223.99647522 C120.53366406 221.88810742 120.53900926 219.77973188 120.54259682 217.67135429 C120.54976398 214.32881275 120.56543431 210.98641786 120.5839386 207.6439209 C120.63638375 198.13901325 120.68434645 188.63418423 120.69985962 179.12913513 C120.70996958 173.31592602 120.73937477 167.50308355 120.78117943 161.69001961 C120.7934554 159.47939903 120.79861694 157.26872658 120.796381 155.05807304 C120.7940148 151.95392474 120.81629656 148.85081792 120.84390259 145.74681091 C120.83730118 144.84305222 120.83069977 143.93929352 120.82389832 143.00814819 C120.96576035 133.23135563 124.4006305 125.44955207 131.08096313 118.3681488 C137.78473971 112.57800447 145.18333165 110.22643621 153.88565063 110.2900238 C154.61387527 110.29143875 155.34209991 110.2928537 156.09239197 110.29431152 C158.41544727 110.29990347 160.73840577 110.31245443 163.06143188 110.32518005 C164.63760237 110.3301961 166.21377436 110.33475882 167.78994751 110.33885193 C171.65131287 110.34987025 175.51260597 110.36712931 179.37393188 110.38768005 C176.37393188 112.38768005 176.37393188 112.38768005 172.74893188 113.51268005 C165.31113426 116.27959556 160.24161107 121.25990107 156.77618408 128.31246948 C154.06239045 134.43113107 153.67781614 139.68576138 153.76211548 146.30979919 C153.75645065 147.44626389 153.75078583 148.58272858 153.74494934 149.75363159 C153.73154243 153.47704465 153.7523267 157.1994671 153.77236938 160.9228363 C153.7668638 163.52875429 153.75873433 166.13466793 153.74810791 168.74057007 C153.72373075 175.58060741 153.72937263 182.4203663 153.74191284 189.26042175 C153.76174106 200.21026815 153.75018593 211.15995299 153.71605301 222.10975456 C153.70997052 225.9219486 153.72318091 229.73373635 153.73803711 233.54589844 C153.73508784 235.89558516 153.73143239 238.24527113 153.72695923 240.59495544 C153.7408947 242.17018478 153.7408947 242.17018478 153.75511169 243.77723694 C153.69959545 254.13067533 151.3868256 263.51636159 144.37393188 271.38768005 C138.76477654 276.04450217 133.94988898 279.46034775 126.52627563 279.59642029 C125.54094849 279.61571091 124.55562134 279.63500153 123.54043579 279.65487671 C119.01443318 279.71290184 114.48858717 279.76194584 109.96231079 279.79270935 C107.58423283 279.81422822 105.20623275 279.84825743 102.82852173 279.89524841 C99.38496818 279.9626421 95.94305422 279.9897791 92.49893188 280.0087738 C91.44955444 280.03660446 90.400177 280.06443512 89.31900024 280.09310913 C80.70933497 280.06947082 73.8526532 277.41253021 67.39859009 271.61251831 C60.51746273 264.39208637 59.26452967 255.05900916 59.22003174 245.43144226 C59.21345836 244.41753139 59.21345836 244.41753139 59.20675218 243.38313746 C59.19345855 241.13106792 59.1872068 238.87903742 59.18106079 236.62693787 C59.17315253 235.0068291 59.16488313 233.38672205 59.15628052 231.76661682 C59.1301497 226.4580298 59.11476435 221.14943524 59.10049438 215.84080505 C59.0951315 214.00906622 59.08975399 212.17732743 59.08436203 210.34558868 C59.06274869 202.72435818 59.04401302 195.10312973 59.03273964 187.48187637 C59.01650363 176.57992127 58.98331656 165.67832265 58.92633879 154.77650189 C58.88758717 147.09900579 58.86810092 139.42160485 58.86281908 131.74401355 C58.85917352 127.163884 58.8472366 122.58413547 58.81471634 118.00411224 C58.78454254 113.69311137 58.77835677 109.38272028 58.7901001 105.0716362 C58.79032004 103.49550218 58.78208112 101.91933906 58.76444626 100.34330368 C58.66885144 91.30308375 59.23506562 84.09302675 64.37393188 76.38768005 C64.92629485 75.52136396 64.92629485 75.52136396 65.48981667 74.63754654 C70.07475088 68.32130332 77.88792684 64.86139088 85.37393188 63.38768005 C89.0859666 63.10585645 92.78517863 63.11738387 96.50650024 63.13230896 C97.60657913 63.12868851 98.70665802 63.12506805 99.84007263 63.12133789 C102.22065847 63.1144625 104.60126001 63.11193496 106.98185539 63.11328506 C110.75267525 63.11425253 114.52321183 63.101282 118.29399109 63.08430481 C129.01227245 63.0380959 139.73050812 63.01334181 150.44888306 63.00682068 C157.01228321 63.0026591 163.57542143 62.97754324 170.13873482 62.94149399 C172.63570941 62.93170434 175.13272491 62.92935945 177.62971306 62.93466568 C181.12412112 62.94174444 184.61764449 62.92443658 188.11196899 62.90184021 C189.13819366 62.91001266 190.16441833 62.91818512 191.22174072 62.92660522 C197.35599462 62.85618013 202.3315476 62.09263635 207.37393188 58.38768005 C210.7370762 54.46362566 212.05784099 50.54478639 211.75674438 45.3759613 C211.04118661 41.65944182 209.65444362 39.44836686 207.37393188 36.38768005 C202.72737507 33.44578902 198.69988049 32.95596939 193.32778931 33 C192.53468699 32.99461446 191.74158468 32.98922892 190.92444897 32.98368019 C188.27594012 32.96941151 185.62793184 32.97650152 182.97940063 32.98362732 C181.07694091 32.97792323 179.1744846 32.97095882 177.27203369 32.96282959 C172.11094433 32.94488874 166.9500249 32.94606816 161.78891373 32.95177197 C157.47960657 32.95486205 153.17033213 32.94877349 148.86102962 32.94273323 C138.69570634 32.92868697 128.53046709 32.93025055 118.36514282 32.94163513 C107.87793721 32.95312065 97.3909872 32.93903356 86.90381527 32.91223866 C77.89813657 32.89009049 68.89253815 32.88344217 59.88683414 32.88931507 C54.50880372 32.89268745 49.13093721 32.89025068 43.75292969 32.87306404 C38.69672095 32.85761079 33.64089139 32.86153254 28.58469772 32.88036919 C26.72954761 32.88405934 24.8743695 32.88093421 23.01924515 32.8704834 C20.48575004 32.85730095 17.95351534 32.86879585 15.42007446 32.88647461 C14.68680026 32.8768696 13.95352606 32.8672646 13.19803143 32.85736853 C8.13519308 32.93000941 5.29256958 34.23886454 1.37393188 37.38768005 C-1.50172573 40.65998009 -2.51775422 43.26121556 -2.93856812 47.63768005 C-2.5371508 52.45468786 -1.42481892 54.45430055 1.37393188 58.38768005 C5.16933393 61.14736499 8.60084047 62.01119966 13.18643188 62.82518005 C22.18802503 64.64054837 30.06980059 67.62896699 35.78408813 75.2743988 C39.99630273 81.72166604 41.68486023 87.45445261 41.56924438 95.19236755 C41.56641449 95.91634735 41.56358459 96.64032715 41.56066895 97.38624573 C41.54955276 99.67856495 41.524465 101.97048069 41.49893188 104.26268005 C41.48889098 105.82517438 41.47976708 107.38767488 41.47158813 108.95018005 C41.44964161 112.76283343 41.41517202 116.57518854 41.37393188 120.38768005 C40.31558906 118.29333046 39.29733855 116.21044664 38.36611938 114.0556488 C34.65201877 105.80930654 29.9568652 100.53498296 21.41690063 97.22361755 C15.03213187 94.99288445 9.01985837 94.86415547 2.31143188 94.88768005 C-8.96057486 94.92706971 -18.30614076 93.55781467 -26.80184937 85.5790863 C-33.92077182 77.02723299 -35.76760864 67.88412132 -35.82919312 57.05955505 C-35.83489319 56.27050781 -35.84059326 55.48146057 -35.84646606 54.66850281 C-35.85587409 53.00443342 -35.86243326 51.34034576 -35.86630249 49.67625427 C-35.87598552 47.15915085 -35.90703898 44.64287282 -35.93856812 42.1259613 C-36.02180315 29.64240998 -35.00545761 19.28370113 -26.62606812 9.38768005 C-19.02954336 2.04757807 -10.32884644 -0.07307229 0 0 Z " fill="#007EC2" transform="translate(37.626068115234375,0.6123199462890625)"/>
<path d="M0 0 C1.39034248 -0.00807831 1.39034248 -0.00807831 2.80877268 -0.01631981 C5.89231653 -0.03054493 8.97542777 -0.02350909 12.05899048 -0.01637268 C14.27889855 -0.02207911 16.49880369 -0.02904442 18.71870422 -0.03717041 C24.73322329 -0.05508724 30.74759635 -0.05393609 36.76213408 -0.04822803 C41.78937852 -0.04513388 46.81659501 -0.05123119 51.84383547 -0.05726677 C64.38475418 -0.07210768 76.92560254 -0.06850263 89.46651621 -0.05640347 C100.33850909 -0.0464743 111.2103317 -0.05940924 122.08229832 -0.08333766 C133.26637949 -0.10776608 144.45039905 -0.1169282 155.63451064 -0.11068493 C161.90523193 -0.10731861 168.17581259 -0.10970899 174.44651413 -0.12693596 C180.34487515 -0.1424333 186.24291181 -0.13841826 192.14126015 -0.11963081 C194.30069862 -0.11595262 196.46016127 -0.11903082 198.61957741 -0.1295166 C211.83985379 -0.18878996 223.81422993 -0.20167718 234.58877563 8.55955505 C241.14291077 15.27144836 243.84857922 23.04659464 244.74893188 32.20018005 C244.40511874 41.44694412 240.17526316 48.68059349 233.88565063 55.2197113 C227.9479173 60.34481551 220.93126937 63.54166104 213.04580688 63.4853363 C212.24658813 63.48211365 211.44736938 63.47889099 210.62393188 63.47557068 C209.79893188 63.46719177 208.97393188 63.45881287 208.12393188 63.45018005 C207.28346313 63.44566833 206.44299438 63.44115662 205.57705688 63.43650818 C203.50931787 63.42475966 201.44161564 63.40682527 199.37393188 63.38768005 C201.33631858 62.07942226 203.33671342 60.82605749 205.37393188 59.63768005 C208.81590096 57.05620324 209.97286055 55.43521948 211.37393188 51.38768005 C212.08449071 44.99265061 211.22774702 41.55990563 207.37393188 36.38768005 C202.72737507 33.44578902 198.69988049 32.95596939 193.32778931 33 C192.53468699 32.99461446 191.74158468 32.98922892 190.92444897 32.98368019 C188.27594012 32.96941151 185.62793184 32.97650152 182.97940063 32.98362732 C181.07694091 32.97792323 179.1744846 32.97095882 177.27203369 32.96282959 C172.11094433 32.94488874 166.9500249 32.94606816 161.78891373 32.95177197 C157.47960657 32.95486205 153.17033213 32.94877349 148.86102962 32.94273323 C138.69570634 32.92868697 128.53046709 32.93025055 118.36514282 32.94163513 C107.87793721 32.95312065 97.3909872 32.93903356 86.90381527 32.91223866 C77.89813657 32.89009049 68.89253815 32.88344217 59.88683414 32.88931507 C54.50880372 32.89268745 49.13093721 32.89025068 43.75292969 32.87306404 C38.69672095 32.85761079 33.64089139 32.86153254 28.58469772 32.88036919 C26.72954761 32.88405934 24.8743695 32.88093421 23.01924515 32.8704834 C20.48575004 32.85730095 17.95351534 32.86879585 15.42007446 32.88647461 C14.68680026 32.8768696 13.95352606 32.8672646 13.19803143 32.85736853 C8.13519308 32.93000941 5.29256958 34.23886454 1.37393188 37.38768005 C-1.50172573 40.65998009 -2.51775422 43.26121556 -2.93856812 47.63768005 C-2.5371508 52.45468786 -1.42481892 54.45430055 1.37393188 58.38768005 C5.16933393 61.14736499 8.60084047 62.01119966 13.18643188 62.82518005 C22.18802503 64.64054837 30.06980059 67.62896699 35.78408813 75.2743988 C39.99630273 81.72166604 41.68486023 87.45445261 41.56924438 95.19236755 C41.56641449 95.91634735 41.56358459 96.64032715 41.56066895 97.38624573 C41.54955276 99.67856495 41.524465 101.97048069 41.49893188 104.26268005 C41.48889098 105.82517438 41.47976708 107.38767488 41.47158813 108.95018005 C41.44964161 112.76283343 41.41517202 116.57518854 41.37393188 120.38768005 C40.31558906 118.29333046 39.29733855 116.21044664 38.36611938 114.0556488 C34.65201877 105.80930654 29.9568652 100.53498296 21.41690063 97.22361755 C15.03213187 94.99288445 9.01985837 94.86415547 2.31143188 94.88768005 C-8.96057486 94.92706971 -18.30614076 93.55781467 -26.80184937 85.5790863 C-33.92077182 77.02723299 -35.76760864 67.88412132 -35.82919312 57.05955505 C-35.83489319 56.27050781 -35.84059326 55.48146057 -35.84646606 54.66850281 C-35.85587409 53.00443342 -35.86243326 51.34034576 -35.86630249 49.67625427 C-35.87598552 47.15915085 -35.90703898 44.64287282 -35.93856812 42.1259613 C-36.02180315 29.64240998 -35.00545761 19.28370113 -26.62606812 9.38768005 C-19.02954336 2.04757807 -10.32884644 -0.07307229 0 0 Z " fill="#00B7EA" transform="translate(37.626068115234375,0.6123199462890625)"/>
<path d="M0 0 C0.72822464 0.00141495 1.45644928 0.0028299 2.20674133 0.00428772 C4.52979664 0.00987966 6.85275513 0.02243063 9.17578125 0.03515625 C10.75195173 0.04017229 12.32812373 0.04473502 13.90429688 0.04882812 C17.76566223 0.05984645 21.62695533 0.07710551 25.48828125 0.09765625 C22.48828125 2.09765625 22.48828125 2.09765625 18.86328125 3.22265625 C11.42548363 5.98957176 6.35596043 10.96987727 2.89053345 18.02244568 C0.17673981 24.14110726 -0.2078345 29.39573758 -0.12353516 36.01977539 C-0.12919998 37.15624008 -0.13486481 38.29270477 -0.14070129 39.46360779 C-0.15410821 43.18702085 -0.13332393 46.9094433 -0.11328125 50.6328125 C-0.11878684 53.23873049 -0.12691631 55.84464413 -0.13754272 58.45054626 C-0.16191989 65.29058361 -0.156278 72.13034249 -0.14373779 78.97039795 C-0.12390957 89.92024434 -0.13546471 100.86992919 -0.16959763 111.81973076 C-0.17568011 115.6319248 -0.16246973 119.44371255 -0.14761353 123.25587463 C-0.1505628 125.60556135 -0.15421824 127.95524733 -0.15869141 130.30493164 C-0.14940109 131.35508453 -0.14011078 132.40523743 -0.13053894 133.48721313 C-0.18605519 143.84065153 -2.49882503 153.22633778 -9.51171875 161.09765625 C-19.21373188 169.15244285 -27.03394743 169.89046588 -39.25683594 169.31103516 C-46.36550329 168.63834403 -51.02315693 164.90708964 -55.88671875 159.97265625 C-64.30983595 149.55459024 -64.01697556 138.85539061 -63.51171875 126.09765625 C-62.85171875 127.08765625 -62.19171875 128.07765625 -61.51171875 129.09765625 C-57.02542792 135.00000254 -57.02542792 135.00000254 -50.328125 137.3984375 C-45.46529799 137.42372083 -42.56853748 137.04806987 -38.51171875 134.09765625 C-37.85171875 134.09765625 -37.19171875 134.09765625 -36.51171875 134.09765625 C-34.11297009 128.21236743 -34.11297009 128.21236743 -33.38041687 121.96983337 C-33.37640869 121.13033142 -33.37240051 120.29082947 -33.36827087 119.42588806 C-33.36879959 118.50795975 -33.36932831 117.59003143 -33.36987305 116.64428711 C-33.36639862 115.67480133 -33.36292419 114.70531555 -33.35934448 113.70645142 C-33.35198658 111.59808362 -33.34664138 109.48970807 -33.34305382 107.38133049 C-33.33588666 104.03878894 -33.32021632 100.69639405 -33.30171204 97.35389709 C-33.24926688 87.84898945 -33.20130419 78.34416043 -33.18579102 68.83911133 C-33.17568106 63.02590222 -33.14627586 57.21305975 -33.10447121 51.3999958 C-33.09219524 49.18937523 -33.0870337 46.97870277 -33.08926964 44.76804924 C-33.09163583 41.66390094 -33.06935408 38.56079412 -33.04174805 35.45678711 C-33.04834946 34.55302841 -33.05495087 33.64926971 -33.06175232 32.71812439 C-32.91989028 22.94133183 -29.48502013 15.15952826 -22.8046875 8.078125 C-16.10091093 2.28798067 -8.70231899 -0.06358759 0 0 Z " fill="#00B8EA" transform="translate(191.51171875,110.90234375)"/>
<path d="M0 0 C0.92518614 -0.00453111 1.85037227 -0.00906223 2.80359435 -0.01373065 C5.89326374 -0.02635658 8.98275645 -0.02475543 12.07244873 -0.02310181 C14.29206061 -0.0290882 16.5116704 -0.03589401 18.73127747 -0.04345703 C24.75414788 -0.0611135 30.77696144 -0.06581229 36.79985523 -0.0670886 C40.56510063 -0.06851103 44.33033161 -0.07278239 48.09557343 -0.07808304 C60.56011863 -0.09562826 73.0246362 -0.10492343 85.48919228 -0.10342209 C86.16039249 -0.10334218 86.83159271 -0.10326227 87.52313232 -0.10317993 C88.19515795 -0.10309817 88.86718358 -0.10301641 89.55957362 -0.10293217 C100.44462071 -0.10211969 111.32952929 -0.12124999 122.21453634 -0.14945666 C133.40758683 -0.17823126 144.60058669 -0.19162872 155.793679 -0.19026911 C162.07114665 -0.18975985 168.34845751 -0.19542366 174.62589264 -0.21662521 C180.5324209 -0.23602963 186.43864319 -0.23611671 192.34518242 -0.22159195 C194.50784949 -0.21950547 196.67053581 -0.22419508 198.83316994 -0.23631287 C212.06582213 -0.30563168 224.04365766 -0.33094237 234.82928467 8.43930054 C241.3834198 15.15119385 244.08908825 22.92634012 244.98944092 32.07992554 C244.64577997 41.32259634 240.42128475 48.5678415 234.12225342 55.09555054 C228.91098826 59.60873344 223.61263531 62.63966992 216.61444092 62.26742554 C219.61444092 60.26742554 219.61444092 60.26742554 221.88397217 59.07601929 C230.26146996 54.55911955 235.13188207 48.40260209 238.14569092 39.36117554 C239.93798346 31.35560217 238.76606067 23.28779419 234.39569092 16.32601929 C229.68300458 10.26498102 223.19488348 6.4169476 215.61444092 5.26742554 C212.42727356 5.12490731 209.24358454 5.13688924 206.05369568 5.14717102 C205.0857052 5.1463166 204.11771472 5.14546217 203.12039119 5.14458185 C199.8744925 5.14293379 196.6286454 5.14843745 193.38275146 5.15390015 C191.05692038 5.15418219 188.73108921 5.15402395 186.40525818 5.15345764 C180.08756615 5.15317033 173.76989305 5.15905635 167.45220542 5.1660316 C161.51979653 5.17164366 155.58738837 5.17265447 149.65497718 5.17368347 C137.90570306 5.17587138 126.15643588 5.18252442 114.40716553 5.19198608 C102.99473098 5.20116694 91.58229833 5.20824448 80.16986084 5.2124939 C79.11443483 5.21288798 79.11443483 5.21288798 78.03768709 5.21329003 C74.50779945 5.21459508 70.97791181 5.21585878 67.44802415 5.21710193 C38.17015855 5.22746643 8.89229983 5.24515208 -20.38555908 5.26742554 C-14.46646516 0.05862288 -7.47280853 -0.02705881 0 0 Z " fill="#00F7FC" transform="translate(37.38555908203125,0.732574462890625)"/>
<path d="M0 0 C-3 2 -3 2 -6.625 3.125 C-14.06279762 5.89191551 -19.13232082 10.87222102 -22.5977478 17.92478943 C-25.31154144 24.04345101 -25.69611575 29.29808133 -25.61181641 35.92211914 C-25.61748123 37.05858383 -25.62314606 38.19504852 -25.62898254 39.36595154 C-25.64238946 43.0893646 -25.62160518 46.81178705 -25.6015625 50.53515625 C-25.60706809 53.14107424 -25.61519756 55.74698788 -25.62582397 58.35289001 C-25.65020114 65.19292736 -25.64455925 72.03268624 -25.63201904 78.8727417 C-25.61219082 89.82258809 -25.62374596 100.77227294 -25.65787888 111.72207451 C-25.66396136 115.53426855 -25.65075098 119.3460563 -25.63589478 123.15821838 C-25.63884405 125.5079051 -25.64249949 127.85759108 -25.64697266 130.20727539 C-25.63768234 131.25742828 -25.62839203 132.30758118 -25.61882019 133.38955688 C-25.67458357 143.78908375 -28.01916801 153.06590313 -35 161 C-40.99050164 166.4301656 -45.91095042 168.86953146 -54 169 C-53.41863281 168.71382812 -52.83726562 168.42765625 -52.23828125 168.1328125 C-42.3666931 163.13672076 -35.94885985 157.30805446 -31.86601448 146.87608528 C-30.37874655 141.93678058 -30.45514205 137.11531647 -30.50170898 131.99194336 C-30.49619019 130.83451126 -30.49067139 129.67707916 -30.48498535 128.48457336 C-30.47570564 125.98782479 -30.47552659 123.49102888 -30.48357964 120.99427605 C-30.49625973 117.03805773 -30.48537017 113.08227641 -30.46754456 109.12611389 C-30.43685764 101.44236285 -30.43521838 93.75874455 -30.43719482 86.07494354 C-30.4385917 76.29125284 -30.42809241 66.50766409 -30.3886171 56.72404772 C-30.3713847 52.16892576 -30.37824275 47.61419327 -30.38975525 43.05906677 C-30.38360934 40.66559634 -30.37669704 38.27212772 -30.36889648 35.87866211 C-30.37661575 34.80464142 -30.38433502 33.73062073 -30.39228821 32.62405396 C-30.32050382 21.92021052 -27.92660622 14.9977851 -20.4609375 7.2421875 C-13.94389832 1.30444069 -8.78214934 -0.69699598 0 0 Z " fill="#00FDFD" transform="translate(217,111)"/>
<path d="M0 0 C0.92790397 2.52273893 1.08450301 3.73724844 0.25 6.33203125 C-4.89299848 16.53766885 -11.13900871 22.37966957 -22 26 C-23.77890342 26.09583713 -25.56118975 26.13331239 -27.34266663 26.13803101 C-29.00579895 26.14621101 -29.00579895 26.14621101 -30.70252991 26.15455627 C-32.52825783 26.15611977 -32.52825783 26.15611977 -34.39086914 26.15771484 C-36.35827082 26.16551432 -38.32567248 26.17331785 -40.29307353 26.18127275 C-42.40957944 26.18898809 -44.52608102 26.19437009 -46.64259529 26.19923019 C-51.06047143 26.20992376 -55.47827134 26.23017463 -59.89610291 26.25234985 C-72.45958949 26.31422069 -85.02307238 26.36819925 -97.58666992 26.40136719 C-104.52443449 26.41976322 -111.46207197 26.4487649 -118.39974302 26.4893719 C-122.06763999 26.51036576 -125.73537729 26.52588821 -129.40333748 26.52817917 C-133.50352492 26.53074296 -137.60327106 26.55629018 -141.70336914 26.58349609 C-142.90635147 26.58048996 -144.1093338 26.57748383 -145.34877014 26.5743866 C-156.18337853 26.68088978 -165.68523182 28.70271779 -174 36 C-178.85212267 41.51708167 -180.85861201 46.80925567 -182 54 C-182.33 54 -182.66 54 -183 54 C-183.77634827 45.61543865 -180.68648178 39.37841084 -175.75 32.6875 C-166.65245703 23.79671937 -156.41539072 22.70257859 -144.26269531 22.74462891 C-142.31189568 22.73907127 -140.36109606 22.73350931 -138.41029692 22.72778487 C-136.32359836 22.72345835 -134.23694754 22.72391112 -132.15024567 22.72560501 C-127.78635606 22.72845214 -123.42262653 22.71403319 -119.05877686 22.69662476 C-106.65314127 22.64973401 -94.24751721 22.62567068 -81.84179688 22.61914062 C-74.9819883 22.61537752 -68.12236175 22.59724908 -61.26263118 22.56404626 C-56.93439687 22.54394761 -52.60663571 22.54140474 -48.2783742 22.55232644 C-44.93710733 22.55557032 -41.59609725 22.53279048 -38.25488281 22.51416016 C-37.07113068 22.52233261 -35.88737854 22.53050507 -34.66775513 22.53892517 C-24.13550726 22.43486999 -15.39524743 20.20726134 -7.65234375 12.796875 C-4.09925191 8.93299262 -1.74131483 4.93372536 0 0 Z " fill="#014B72" transform="translate(280,41)"/>
<path d="M0 0 C-0.7425 0.556875 -1.485 1.11375 -2.25 1.6875 C-6.97708255 5.66254669 -9.71176654 9.00237207 -10.3125 15.25 C-9.91108268 20.06700781 -8.7987508 22.0666205 -6 26 C-2.20459796 28.75968494 1.22690858 29.6235196 5.8125 30.4375 C14.81409314 32.25286831 22.6958687 35.24128694 28.41015625 42.88671875 C32.62237085 49.33398599 34.31092835 55.06677256 34.1953125 62.8046875 C34.1924826 63.5286673 34.18965271 64.25264709 34.18673706 64.99856567 C34.17562087 67.2908849 34.15053312 69.58280063 34.125 71.875 C34.1149591 73.43749432 34.10583519 74.99999482 34.09765625 76.5625 C34.07570973 80.37515338 34.04124013 84.18750848 34 88 C33.6920752 87.37488525 33.38415039 86.74977051 33.06689453 86.10571289 C32.05960091 84.03487279 32.05960091 84.03487279 30.9296875 82.30859375 C27.41323054 76.07013862 27.7062313 70.04475236 28.06005859 63.09155273 C28.36517874 55.24641333 26.5346489 47.85349412 21.625 41.5703125 C15.63011099 35.77717456 8.85339491 34.67426171 0.8359375 34.29296875 C-4.66710069 33.72447307 -8.5120913 31.4879087 -12.375 27.625 C-15.56644613 22.46958703 -17.11030061 17.06133498 -16 11 C-14.22504567 6.90000219 -12.01439749 3.83232615 -8.5625 1 C-5.55425426 -0.17394956 -3.20212945 -0.22340438 0 0 Z " fill="#01FBFD" transform="translate(45,33)"/>
<path d="M0 0 C0.92790397 2.52273893 1.08450301 3.73724844 0.25 6.33203125 C-4.23694198 15.23580673 -9.53263553 21.39527127 -19 25 C-22 25.75 -22 25.75 -24 26 C-24.66 25.01 -25.32 24.02 -26 23 C-25.2265625 22.72027344 -24.453125 22.44054687 -23.65625 22.15234375 C-14.11557712 18.48012931 -7.12992781 14.07602612 -2 5 C-1.28426473 3.35380887 -0.5974304 1.69271945 0 0 Z " fill="#00567B" transform="translate(280,41)"/>
<path d="M0 0 C2 2 2 2 3.1875 5.625 C5.86302985 12.92310371 10.55253108 17.53801138 17.4375 21 C18.95004396 21.68526582 20.46820285 22.35892594 22 23 C22 23.33 22 23.66 22 24 C15.28314239 24.70703764 15.28314239 24.70703764 12.0859375 22.9453125 C6.07439744 18.04603977 1.88285182 11.5314073 0 4 C0 2.68 0 1.36 0 0 Z " fill="#004F77" transform="translate(128,256)"/>
<path d="M0 0 C0.33 1.32 0.66 2.64 1 4 C0.113125 4.66 -0.77375 5.32 -1.6875 6 C-8.10804159 11.40357637 -10.73552665 17.84697778 -12 26 C-12.33 26 -12.66 26 -13 26 C-13.78709204 17.499406 -10.66358328 11.0906357 -5.375 4.5 C-3 2 -3 2 0 0 Z " fill="#115E83" transform="translate(110,69)"/>
<path d="M0 0 C2.08014266 2.08014266 2.6083023 3.28228507 3.5625 6 C4.29936964 8.07697972 5.01375093 10.02750187 6 12 C5.34 12.66 4.68 13.32 4 14 C3.32471777 12.42032193 2.66010306 10.83608097 2 9.25 C1.62875 8.36828125 1.2575 7.4865625 0.875 6.578125 C0 4 0 4 0 0 Z " fill="#005D89" transform="translate(128,256)"/>
<path d="M0 0 C1.07156762 4.28627048 1.0365854 4.66075382 -0.9375 8.25 C-1.31777344 8.95640625 -1.69804687 9.6628125 -2.08984375 10.390625 C-2.39019531 10.92171875 -2.69054687 11.4528125 -3 12 C-3.66 11.34 -4.32 10.68 -5 10 C-3.35 6.7 -1.7 3.4 0 0 Z " fill="#006086" transform="translate(280,41)"/>
<path d="M0 0 C0 3 0 3 -2 5.1875 C-2.66 5.785625 -3.32 6.38375 -4 7 C-4.66 6.67 -5.32 6.34 -6 6 C-2.25 1.125 -2.25 1.125 0 0 Z " fill="#E5F0F3" transform="translate(136,97)"/>
<path d="M0 0 C-3.00617269 3.00617269 -5.82381598 2.59585316 -10 3 C-3.66666667 -1.22222222 -3.66666667 -1.22222222 0 0 Z " fill="#fff" transform="translate(264,60)"/>
</svg>
